# xmcd
#
# Track frame offsets: 
#        182
#        12432
#        25497
#        38570
#        49162
#        61707
#        74825
#        87330
#        99687
#        111372
#        123685
#        136112
#        145835
#        157280
#        169407
#        181090
#        190720
#        202002
#        212852
#        221707
#
# Disc length: 3145 seconds
#
# Revision: 2
# Processed by: cddbd v1.5.2PL0 Copyright (c) Steve Scherf et al.
# Submitted via: ExactAudioCopy v0.95b4
#
DISCID=370c4714
DTITLE=Various Artist - Traditions In Country Music
DYEAR=1900
DGENRE=Country
TTITLE0=Tex Ritter - You Two-Timed Me Once Too Often
TTITLE1=Westley Tuttle - With Tears In My Eyes
TTITLE2=Tex Ritter - You Will Have To Pay (For Your Yesterdays)
TTITLE3=Merle Travis - Divorce Me C.O.D.
TTITLE4=Cliffie Stone - Silver Stars, Purple Sage, Eyes Of Blue
TTITLE5=Cliffie Stone - Peepin' Through The Keyhole (Watchin' Jole Blo
TTITLE5=n)
TTITLE6=Jimmy Wakely - One Has My Name, The Other Has My Heart
TTITLE7=Leon Payne - I Love You Because
TTITLE8=Tennessee Ernie Ford - Shot-Gun Boogie
TTITLE9=Hank Thompson - The Wild Side Of Life
TTITLE10=Skeets McDonald - Don't Let The Stars Get In Your Eyes
TTITLE11=Hank Thompson - Rub-A-Dub-Dub
TTITLE12=Jean Shepard - A Dear John Letter (with Ferlin Husky)
TTITLE13=Jimmy Heap and The Melody Masters - Release Me
TTITLE14=Tennessee Ernie Ford - Sixteen Tons
TTITLE15=The Louvin Brothers - I Don't Believe You've Met My Baby
TTITLE16=Sonny James - Young Love
TTITLE17=Ferlin Husky - Gone
TTITLE18=Faron Young - Alone With You
TTITLE19=Simon Crum - Country Music Is Here To Stay
EXTD=
EXTT0=Tex Ritter
EXTT1=Wesley Tuttle
EXTT2=Tex Ritter
EXTT3=Merle Travis
EXTT4=Cliffie Stone
EXTT5=Cliffie Stone
EXTT6=Jimmy Wakely
EXTT7=Leon Payne
EXTT8=Tennessee Ernie Ford
EXTT9=Hank Thompson
EXTT10=Skeets McDonald
EXTT11=Hank Thompson
EXTT12=Jean Shepard and Ferlin Huskey
EXTT13=Jimmy Heap and The Melody Masters with\n Perk Williams\n
EXTT14=Tennessee Ernie Ford
EXTT15=The Louvin Brothers
EXTT16=Sonny James
EXTT17=Ferlin Huskey
EXTT18=Faron Young
EXTT19=Simon Crum
PLAYORDER=
